<svg xmlns="http://www.w3.org/2000/svg" viewBox="0 0 600 350" width="100%" height="100%">
  <rect width="600" height="350" fill="#0f172a" rx="15" />
  <text x="300" y="40" font-family="'Inter', sans-serif" font-size="20" font-weight="bold" fill="#f1f5f9" text-anchor="middle">TREE OF THOUGHTS SEARCH (ToT)</text>
  
  <circle cx="300" cy="90" r="22" fill="#1e293b" stroke="#38bdf8" stroke-width="2" />
  <text x="300" y="94" font-family="monospace" font-size="12" fill="#38bdf8" text-anchor="middle" font-weight="bold">Root</text>

  <path d="M300 112 L180 170 M300 112 L300 170 M300 112 L420 170" stroke="#64748b" stroke-width="2" fill="none" />

  <circle cx="180" cy="180" r="20" fill="#1e293b" stroke="#a855f7" stroke-width="2" />
  <text x="180" y="184" font-family="monospace" font-size="11" fill="#a855f7" text-anchor="middle">T1</text>

  <circle cx="300" cy="180" r="20" fill="#1e293b" stroke="#10b981" stroke-width="2" />
  <text x="300" y="184" font-family="monospace" font-size="11" fill="#10b981" text-anchor="middle">T2</text>

  <circle cx="420" cy="180" r="20" fill="#1e293b" stroke="#f43f5e" stroke-width="2" />
  <text x="420" y="184" font-family="monospace" font-size="11" fill="#f43f5e" text-anchor="middle">T3</text>

  <path d="M300 200 L250 250 M300 200 L350 250" stroke="#64748b" stroke-width="2" fill="none" />

  <circle cx="250" cy="260" r="18" fill="#1e293b" stroke="#10b981" stroke-width="2" />
  <text x="250" y="264" font-family="monospace" font-size="10" fill="#10b981" text-anchor="middle">T2.1</text>

  <circle cx="350" cy="260" r="18" fill="#1e293b" stroke="#64748b" stroke-width="1.5" />
  <text x="350" y="264" font-family="monospace" font-size="10" fill="#94a3b8" text-anchor="middle">T2.2</text>
  
  <text x="180" y="215" font-family="'Inter', sans-serif" font-size="10" fill="#a855f7" text-anchor="middle">Explore</text>
  <text x="300" y="215" font-family="'Inter', sans-serif" font-size="10" fill="#10b981" text-anchor="middle">Valid (0.8)</text>
  <text x="420" y="215" font-family="'Inter', sans-serif" font-size="10" fill="#f43f5e" text-anchor="middle">Pruned (0.1)</text>
</svg>
