<svg xmlns="http://www.w3.org/2000/svg" viewBox="0 0 900 300" width="100%" height="100%">
  <rect width="900" height="300" fill="#0f172a" rx="15" />
  <text x="450" y="45" font-family="'Inter', sans-serif" font-size="24" font-weight="bold" fill="#f1f5f9" text-anchor="middle">AGENT EXECUTION WORKFLOW</text>
  
  <rect x="40" y="100" width="110" height="70" rx="8" fill="#1e293b" stroke="#38bdf8" stroke-width="2" />
  <text x="95" y="130" font-family="'Inter', sans-serif" font-size="14" font-weight="bold" fill="#38bdf8" text-anchor="middle">User Request</text>
  <text x="95" y="150" font-family="'Inter', sans-serif" font-size="12" fill="#94a3b8" text-anchor="middle">Defines task</text>

  <path d="M150 135 L180 135" stroke="#64748b" stroke-width="3" fill="none" />

  <rect x="180" y="100" width="110" height="70" rx="8" fill="#1e293b" stroke="#0ea5e9" stroke-width="2" />
  <text x="235" y="130" font-family="'Inter', sans-serif" font-size="14" font-weight="bold" fill="#0ea5e9" text-anchor="middle">1. Plan</text>
  <text x="235" y="150" font-family="'Inter', sans-serif" font-size="12" fill="#94a3b8" text-anchor="middle">Mental checklist</text>

  <path d="M290 135 L320 135" stroke="#64748b" stroke-width="3" fill="none" />

  <rect x="320" y="100" width="110" height="70" rx="8" fill="#1e293b" stroke="#f59e0b" stroke-width="2" />
  <text x="375" y="130" font-family="'Inter', sans-serif" font-size="14" font-weight="bold" fill="#f59e0b" text-anchor="middle">2. Review</text>
  <text x="375" y="150" font-family="'Inter', sans-serif" font-size="12" fill="#94a3b8" text-anchor="middle">Plan approval</text>

  <path d="M430 135 L460 135" stroke="#64748b" stroke-width="3" fill="none" />

  <rect x="460" y="100" width="110" height="70" rx="8" fill="#1e293b" stroke="#a855f7" stroke-width="2" />
  <text x="515" y="130" font-family="'Inter', sans-serif" font-size="14" font-weight="bold" fill="#a855f7" text-anchor="middle">3. Execute</text>
  <text x="515" y="150" font-family="'Inter', sans-serif" font-size="12" fill="#94a3b8" text-anchor="middle">Surgical coding</text>

  <path d="M570 135 L600 135" stroke="#64748b" stroke-width="3" fill="none" />

  <rect x="600" y="100" width="110" height="70" rx="8" fill="#1e293b" stroke="#10b981" stroke-width="2" />
  <text x="655" y="130" font-family="'Inter', sans-serif" font-size="14" font-weight="bold" fill="#10b981" text-anchor="middle">4. Verify</text>
  <text x="655" y="150" font-family="'Inter', sans-serif" font-size="12" fill="#94a3b8" text-anchor="middle">Looping checks</text>

  <path d="M710 135 L740 135" stroke="#64748b" stroke-width="3" fill="none" />

  <rect x="740" y="100" width="120" height="70" rx="8" fill="#1e293b" stroke="#10b981" stroke-width="2" />
  <text x="800" y="130" font-family="'Inter', sans-serif" font-size="14" font-weight="bold" fill="#10b981" text-anchor="middle">5. Walkthrough</text>
  <text x="800" y="150" font-family="'Inter', sans-serif" font-size="12" fill="#94a3b8" text-anchor="middle">Summary &amp; tests</text>
  
  <path d="M655 170 L655 220 L515 220 L515 170" stroke="#f43f5e" stroke-width="2.5" stroke-dasharray="6 4" fill="none" />
  <text x="585" y="210" font-family="'Inter', sans-serif" font-size="11" fill="#f43f5e" text-anchor="middle">Loop on Failure</text>
</svg>